<?xml version="1.0" encoding="UTF-8"?>
<svg width="82px" height="65px" viewBox="0 0 82 65" version="1.1" xmlns="http://www.w3.org/2000/svg" xmlns:xlink="http://www.w3.org/1999/xlink">
    <title>Illustration/Configure</title>
    <defs>
        <polygon id="path-1" points="0 64.454 81.807 64.454 81.807 0 0 0"></polygon>
    </defs>
    <g id="Page-1" stroke="none" stroke-width="1" fill="none" fill-rule="evenodd">
        <g id="Services-Opportunity-Checklist---Closed-Copy" transform="translate(-81.000000, -1957.000000)">
            <g id="!-DROP-DOWN" transform="translate(0.000000, 920.000000)">
                <g id="02" transform="translate(59.000000, 998.000000)">
                    <g id="Group" transform="translate(22.000000, 39.000000)">
                        <path d="M0,11.1259 L0,56.4859 C0,60.8869 3.567,64.4539 7.968,64.4539 L73.839,64.4539 C78.24,64.4539 81.807,60.8869 81.807,56.4859 L81.807,11.1259 L0,11.1259 Z" id="Fill-1" fill="#FEFEFE"></path>
                        <path d="M0,14.166 L0,7.968 C0,3.568 3.567,0 7.968,0 L73.838,0 C78.239,0 81.807,3.568 81.807,7.968 L81.807,14.166 L0,14.166 Z" id="Fill-3" fill="#334A5E"></path>
                        <path d="M69.0921,7.5016 C69.0921,8.9796 70.2901,10.1776 71.7681,10.1776 C73.2461,10.1776 74.4441,8.9796 74.4441,7.5016 C74.4441,6.0236 73.2461,4.8256 71.7681,4.8256 C70.2901,4.8256 69.0921,6.0236 69.0921,7.5016" id="Fill-5" fill="#FEFEFE"></path>
                        <path d="M59.0571,7.5016 C59.0571,8.9796 60.2551,10.1776 61.7331,10.1776 C63.2111,10.1776 64.4091,8.9796 64.4091,7.5016 C64.4091,6.0236 63.2111,4.8256 61.7331,4.8256 C60.2551,4.8256 59.0571,6.0236 59.0571,7.5016" id="Fill-7" fill="#FEFEFE"></path>
                        <path d="M49.0221,7.5016 C49.0221,8.9796 50.2201,10.1776 51.6981,10.1776 C53.1761,10.1776 54.3741,8.9796 54.3741,7.5016 C54.3741,6.0236 53.1761,4.8256 51.6981,4.8256 C50.2201,4.8256 49.0221,6.0236 49.0221,7.5016" id="Fill-9" fill="#FEFEFE"></path>
                        <path d="M58.7533,48.5442 C54.3343,48.5442 50.7523,44.9622 50.7523,40.5432 C50.7523,36.1242 54.3343,32.5412 58.7533,32.5412 C63.1723,32.5412 66.7543,36.1242 66.7543,40.5432 C66.7543,44.9622 63.1723,48.5442 58.7533,48.5442 L58.7533,48.5442 Z M72.3863,37.8882 C72.0243,36.0242 71.2913,34.2922 70.2693,32.7772 L72.1963,29.7462 L69.5453,27.0962 L66.5153,29.0222 C64.9993,28.0002 63.2673,27.2672 61.4033,26.9102 L60.6253,23.4002 L56.8763,23.4002 L56.0983,26.9102 C54.2343,27.2672 52.5023,28.0002 50.9873,29.0222 L47.9563,27.0962 L45.3063,29.7462 L47.2333,32.7772 C46.2103,34.2922 45.4783,36.0242 45.1203,37.8882 L41.6103,38.6662 L41.6103,42.4152 L45.1203,43.1982 C45.4783,45.0572 46.2103,46.7892 47.2333,48.3042 L45.3063,51.3352 L47.9563,53.9852 L50.9873,52.0582 C52.5023,53.0852 54.2343,53.8132 56.0983,54.1752 L56.8763,57.6812 L60.6253,57.6812 L61.4033,54.1752 C63.2673,53.8132 64.9993,53.0852 66.5153,52.0582 L69.5453,53.9852 L72.1963,51.3352 L70.2693,48.3042 C71.2913,46.7892 72.0243,45.0572 72.3863,43.1982 L75.8913,42.4152 L75.8913,38.6662 L72.3863,37.8882 Z" id="Fill-11" fill="#334A5E"></path>
                        <mask id="mask-2" fill="white">
                            <use xlink:href="#path-1"></use>
                        </mask>
                        <g id="Clip-14"></g>
                        <polygon id="Fill-13" fill="#CED5DF" mask="url(#mask-2)" points="5.915 32.422 34.572 32.422 34.572 28.422 5.915 28.422"></polygon>
                        <polygon id="Fill-15" fill="#CED5DF" mask="url(#mask-2)" points="5.915 40.841 34.572 40.841 34.572 36.841 5.915 36.841"></polygon>
                        <polygon id="Fill-16" fill="#CED5DF" mask="url(#mask-2)" points="5.915 49.261 34.572 49.261 34.572 45.261 5.915 45.261"></polygon>
                        <polygon id="Fill-17" fill="#CED5DF" mask="url(#mask-2)" points="5.916 57.681 22.312 57.681 22.312 53.681 5.916 53.681"></polygon>
                    </g>
                </g>
            </g>
        </g>
    </g>
</svg>