<?xml version="1.0" encoding="UTF-8"?>
<svg width="71px" height="99px" viewBox="0 0 71 99" version="1.1" xmlns="http://www.w3.org/2000/svg" xmlns:xlink="http://www.w3.org/1999/xlink">
    <title>Illustration/Deploy</title>
    <defs>
        <polygon id="path-1" points="0 7.10542736e-15 28.3346086 7.10542736e-15 28.3346086 36.0967638 0 36.0967638"></polygon>
        <polygon id="path-3" points="0 7.10542736e-15 28.3346086 7.10542736e-15 28.3346086 36.0967638 0 36.0967638"></polygon>
        <polygon id="path-5" points="-1.77635684e-15 0 56.5400932 0 56.5400932 70.9901797 -1.77635684e-15 70.9901797"></polygon>
        <polygon id="path-7" points="0 0 21.3743682 0 21.3743682 20.867 0 20.867"></polygon>
        <polygon id="path-9" points="0 0.02635 1 0.02635 1 0.97365 0 0.97365"></polygon>
        <polygon id="path-11" points="0 0.08605 1 0.08605 1 0.91395 0 0.91395"></polygon>
        <polygon id="path-13" points="0.1919 0 0.8081 0 0.8081 1 0.1919 1"></polygon>
        <polygon id="path-15" points="0 0.18345 1 0.18345 1 0.81655 0 0.81655"></polygon>
        <polygon id="path-17" points="0.1717 0 0.8283 0 0.8283 1 0.1717 1"></polygon>
        <polygon id="path-19" points="0 0.1403 1 0.1403 1 0.8597 0 0.8597"></polygon>
        <polygon id="path-21" points="0.00985 0 0.99015 0 0.99015 1 0.00985 1"></polygon>
        <polygon id="path-23" points="0 0.11285 1 0.11285 1 0.88715 0 0.88715"></polygon>
        <polygon id="path-25" points="0 0.05995 1 0.05995 1 0.94005 0 0.94005"></polygon>
        <polygon id="path-27" points="0 0.1645 1 0.1645 1 0.8355 0 0.8355"></polygon>
        <polygon id="path-29" points="0.09175 0 0.90825 0 0.90825 3.038 0.09175 3.038"></polygon>
        <polygon id="path-31" points="0.18175 0 0.81825 0 0.81825 1 0.18175 1"></polygon>
        <polygon id="path-33" points="0 0 8.09612779 0 8.09612779 20.8674 0 20.8674"></polygon>
        <polygon id="path-35" points="0.25 0.25 0.75 0.25 0.75 0.75 0.25 0.75"></polygon>
    </defs>
    <g id="Page-1" stroke="none" stroke-width="1" fill="none" fill-rule="evenodd">
        <g id="Services-Opportunity-Checklist---Closed-Copy" transform="translate(-96.000000, -2123.000000)">
            <g id="!-DROP-DOWN" transform="translate(0.000000, 920.000000)">
                <g id="03" transform="translate(59.000000, 1175.000000)">
                    <g id="Group" transform="translate(36.871784, 28.466373)">
                        <path d="M15.4863,53.80445 C18.2263,46.51745 21.8253,38.47845 26.6003,31.59645 C26.6753,31.48845 26.7513,31.38345 26.8263,31.27645 C23.2253,31.96745 19.3933,33.45945 15.7203,35.75345 C5.7413,41.98445 0.5543,51.86745 3.6343,58.36545 C7.5873,55.91745 11.6943,54.38545 15.4863,53.80445" id="Fill-1" fill="#F16335"></path>
                        <path d="M16.2743,35.69555 C19.9473,33.40155 23.7803,31.91055 27.3813,31.21955 C27.3883,31.20855 27.3953,31.19855 27.4023,31.18855 C28.2253,30.02455 27.2053,28.45155 25.8113,28.74755 C21.5783,29.64555 16.9943,31.83955 12.8093,35.23355 C4.0683,42.32155 0.0883,52.18755 3.1333,58.34455 C3.2603,58.60055 3.5833,58.68855 3.8253,58.53555 L3.8333,58.53055 C4.0323,58.40455 4.1143,58.15355 4.0233,57.93655 C1.3053,51.43855 6.4833,41.80855 16.2743,35.69555" id="Fill-3" fill="#F16335"></path>
                        <path d="M36.9867,69.00745 C42.9437,63.99545 49.3237,57.92245 54.2197,51.12645 C54.2957,51.01945 54.3697,50.91245 54.4457,50.80645 C54.9947,54.43145 54.8657,58.54245 53.9277,62.76945 C51.3797,74.25545 43.7897,82.44045 36.6367,81.70145 C37.6277,77.15945 37.7027,72.77545 36.9867,69.00745" id="Fill-5" fill="#F16335"></path>
                        <path d="M53.7972,62.22805 C54.7352,58.00005 54.8642,53.89005 54.3152,50.26505 C54.3222,50.25405 54.3302,50.24405 54.3372,50.23405 C55.1602,49.07005 56.9822,49.50705 57.1682,50.92105 C57.7332,55.21105 57.1922,60.26305 55.3872,65.34105 C51.6192,75.94505 43.6442,82.98605 36.8242,82.16705 C36.5402,82.13305 36.3492,81.85805 36.4132,81.57905 L36.4152,81.57005 C36.4672,81.34005 36.6772,81.17905 36.9122,81.19205 C43.9442,81.58805 51.2972,73.49705 53.7972,62.22805" id="Fill-7" fill="#F16335"></path>
                        <g id="Group-11" transform="translate(0.250000, 62.039486)">
                            <mask id="mask-2" fill="white">
                                <use xlink:href="#path-1"></use>
                            </mask>
                            <g id="Clip-10"></g>
                            <path d="M24.6161,2.11276383 C28.3941,5.06976383 29.2641,10.4387638 23.8251,18.1307638 C18.2121,26.0687638 3.9131,30.5847638 3.9121,30.5847638 L3.9121,30.5847638 C3.9121,30.5847638 3.4021,15.5977638 9.0161,7.65876383 C14.4541,-0.032236174 19.8071,-1.00223617 23.8541,1.57376383 C19.0221,-1.55623617 12.6111,-0.438236174 6.0971,8.77576383 C-0.5929,18.2367638 0.0141,36.0967638 0.0141,36.0967638 C0.0151,36.0967638 17.0561,30.7157638 23.7461,21.2547638 C30.2601,12.0417638 29.1771,5.62476383 24.6161,2.11276383" id="Fill-9" fill="#FAAF3B" mask="url(#mask-2)"></path>
                        </g>
                        <g id="Group-14" transform="translate(0.250000, 62.039486)">
                            <mask id="mask-4" fill="white">
                                <use xlink:href="#path-3"></use>
                            </mask>
                            <g id="Clip-13"></g>
                            <path d="M24.6161,2.11276383 C28.3941,5.06976383 29.2641,10.4387638 23.8251,18.1307638 C18.2121,26.0687638 3.9131,30.5847638 3.9121,30.5847638 L3.9121,30.5847638 C3.9121,30.5847638 3.4021,15.5977638 9.0161,7.65876383 C14.4541,-0.032236174 19.8071,-1.00223617 23.8541,1.57376383 C19.0221,-1.55623617 12.6111,-0.438236174 6.0971,8.77576383 C-0.5929,18.2367638 0.0141,36.0967638 0.0141,36.0967638 C0.0151,36.0967638 17.0561,30.7157638 23.7461,21.2547638 C30.2601,12.0417638 29.1771,5.62476383 24.6161,2.11276383" id="Fill-12" fill="#FAAF3B" mask="url(#mask-4)"></path>
                        </g>
                        <path d="M9.7443,84.72965 L9.7443,84.72965 C9.7443,84.72965 10.1753,75.25865 13.9273,69.95165 C17.6803,64.64465 21.0253,63.88165 23.3323,65.51265 C25.6393,67.14465 26.0343,70.55265 22.2823,75.85965 C18.5303,81.16565 9.7453,84.72965 9.7443,84.72965 M24.8663,64.15265 C24.7433,64.05765 24.6193,63.96365 24.4913,63.87365 C24.3643,63.78365 24.2343,63.69765 24.1043,63.61365 C20.0573,61.03765 14.7043,62.00665 9.2663,69.69765 C3.6523,77.63765 4.1623,92.62365 4.1623,92.62365 L4.1623,92.62365 C4.1633,92.62365 18.4623,88.10865 24.0753,80.16965 C29.5143,72.47865 28.6443,67.10965 24.8663,64.15265" id="Fill-15" fill="#FAAF3B"></path>
                        <path d="M23.3325,65.51285 C21.0255,63.88185 17.6805,64.64485 13.9275,69.95185 C10.1755,75.25785 9.7445,84.72985 9.7445,84.72985 L9.7445,84.72985 C9.7455,84.72885 18.5305,81.16585 22.2825,75.85985 C26.0345,70.55285 25.6395,67.14385 23.3325,65.51285" id="Fill-17" fill="#FDF3A5"></path>
                        <path d="M29.7461,71.61465 C30.3641,72.05165 31.1981,72.02565 31.7861,71.54765 C38.8141,65.83565 47.0851,58.39765 53.1031,49.88565 C64.0751,34.36865 62.1641,18.79365 61.2041,13.96965 C61.0281,13.08665 60.1951,12.49665 59.3031,12.62565 C54.4351,13.32865 39.1141,16.71865 28.1421,32.23565 C22.1231,40.74665 17.8671,51.02465 14.8251,59.55465 C14.5701,60.26765 14.8231,61.06265 15.4421,61.49965 L29.7461,71.61465 Z" id="Fill-19" fill="#F05B26"></path>
                        <g id="Group-23" transform="translate(14.456842, 0.183450)">
                            <mask id="mask-6" fill="white">
                                <use xlink:href="#path-5"></use>
                            </mask>
                            <g id="Clip-22"></g>
                            <path d="M17.9751584,70.6185 C18.7151584,71.1415 19.7131584,71.1105 20.4161584,70.5385 C28.8271584,63.7025 38.7261584,54.8005 45.9291584,44.6135 C59.0601584,26.0425 56.7731584,7.4035 55.6241584,1.6295 C55.4141584,0.5725 54.4161584,-0.1335 53.3491584,0.0205 C47.5221584,0.8615 29.1871584,4.9185 16.0551584,23.4905 C8.85215843,33.6765 3.75915843,45.9765 0.11715843,56.1855 C-0.18684157,57.0395 0.11515843,57.9905 0.85615843,58.5135 L17.9751584,70.6185 Z" id="Fill-21" fill="#FEFEFE" mask="url(#mask-6)"></path>
                        </g>
                        <path d="M59.9519,30.30415 C56.9429,34.55915 51.0549,35.56915 46.7999,32.56115 C42.5449,29.55215 41.5349,23.66415 44.5429,19.40915 C47.5519,15.15415 53.4399,14.14315 57.6949,17.15215 C61.9499,20.16115 62.9609,26.04915 59.9519,30.30415" id="Fill-24" fill="#334A5E"></path>
                        <path d="M56.9032,18.27225 C53.2722,15.70525 48.2302,16.57025 45.6632,20.20025 C43.0962,23.83125 43.9612,28.87325 47.5922,31.44025 C51.2222,34.00725 56.2642,33.14225 58.8322,29.51225 C61.3992,25.88125 60.5332,20.83925 56.9032,18.27225 M46.0082,33.68125 C41.1422,30.24025 39.9822,23.48225 43.4232,18.61625 C46.8642,13.75125 53.6212,12.59125 58.4872,16.03225 C63.3532,19.47225 64.5122,26.23025 61.0722,31.09625 C57.6312,35.96225 50.8732,37.12125 46.0082,33.68125" id="Fill-26" fill="#FAAF3B"></path>
                        <path d="M62.9323,23.28635 C62.8153,25.22635 62.1763,27.15735 60.9743,28.85835 C57.5333,33.72435 50.7763,34.88335 45.9103,31.44235 C43.4013,29.66835 41.8803,27.01235 41.4653,24.18835 C41.2473,27.80035 42.8423,31.44235 46.0073,33.68035 C50.8733,37.12135 57.6313,35.96235 61.0723,31.09635 C62.7383,28.73935 63.3223,25.93935 62.9323,23.28635" id="Fill-28" fill="#F69321"></path>
                        <path d="M55.0235,50.69045 C55.0365,50.53645 55.1735,50.42145 55.2485,50.28645 C55.2555,50.27345 55.2625,50.26045 55.2695,50.24745 C55.2845,50.22045 55.3015,50.19545 55.3165,50.17045 C54.9955,50.26145 54.6935,50.45645 54.4675,50.77545 C54.4605,50.78545 54.4525,50.79545 54.4455,50.80645 C54.3705,50.91245 54.2965,51.01945 54.2195,51.12645 C49.3235,57.92245 42.9435,63.99545 36.9865,69.00745 C37.2545,70.41745 37.4115,71.91345 37.4515,73.47145 C52.1255,58.75145 54.8415,52.79945 55.0235,50.69045" id="Fill-30" fill="#DE562A"></path>
                        <path d="M70.0809,1.81265 C69.8709,0.75565 68.8729,0.05065 67.8059,0.20465 C66.6309,0.37365 64.9459,0.67465 62.8979,1.19865 C63.7819,1.49965 64.6029,1.92065 65.3529,2.46965 C73.2659,8.26565 70.1299,26.00365 58.3479,42.08665 C46.5669,58.16965 30.6019,66.50965 22.6889,60.71365 C18.9319,57.96065 17.6669,52.51465 18.6349,45.83265 C17.1119,49.46965 15.7649,53.03165 14.5739,56.36865 C14.2699,57.22265 14.5729,58.17365 15.3129,58.69665 L32.4319,70.80165 C33.1719,71.32565 34.1699,71.29365 34.8729,70.72165 C43.2839,63.88565 53.1829,54.98365 60.3859,44.79765 C73.5169,26.22565 71.2299,7.58665 70.0809,1.81265" id="Fill-32" fill="#E5E5E4"></path>
                        <g id="Group-36" transform="translate(49.621600, 0.183450)">
                            <mask id="mask-8" fill="white">
                                <use xlink:href="#path-7"></use>
                            </mask>
                            <g id="Clip-35"></g>
                            <path d="M12.871,9.948 C16.692,12.65 19.289,16.499 20.601,20.867 C22.08,11.973 21.096,4.827 20.459,1.629 C20.249,0.572 19.251,-0.133 18.185,0.021 C14.957,0.487 7.892,1.941 0,6.299 C4.555,6.08 9.05,7.246 12.871,9.948" id="Fill-34" fill="#F16335" mask="url(#mask-8)"></path>
                        </g>
                        <path d="M70.3207,3.13515 C70.3277,3.17715 70.3347,3.22015 70.3417,3.26215 C70.3347,3.22015 70.3277,3.17715 70.3207,3.13515" id="Fill-37" fill="#F16335"></path>
                        <path d="M70.4465,3.94285 C70.4515,3.97885 70.4575,4.01585 70.4625,4.05285 C70.4575,4.01585 70.4515,3.97885 70.4465,3.94285" id="Fill-39" fill="#F16335"></path>
                        <path d="M64.4844,0.81985 C64.6374,0.78585 64.7884,0.75285 64.9354,0.72185 C64.7884,0.75285 64.6374,0.78585 64.4844,0.81985" id="Fill-41" fill="#F16335"></path>
                        <path d="M70.3835,3.52625 C70.3895,3.56625 70.3955,3.60625 70.4025,3.64725 C70.3965,3.60625 70.3895,3.56625 70.3835,3.52625" id="Fill-43" fill="#F16335"></path>
                        <path d="M70.259,2.77045 C70.266,2.81145 70.273,2.85445 70.281,2.89645 C70.273,2.85445 70.266,2.81145 70.259,2.77045" id="Fill-45" fill="#F16335"></path>
                        <g id="Group-49" transform="translate(64.873400, 0.157100)">
                            <mask id="mask-10" fill="white">
                                <use xlink:href="#path-9"></use>
                            </mask>
                            <g id="Clip-48"></g>
                            <path d="M0.2255,0.52965 C0.4135,0.49065 0.5965,0.45265 0.7745,0.41765 C0.5965,0.45265 0.4135,0.49065 0.2255,0.52965" id="Fill-47" fill="#F16335" mask="url(#mask-10)"></path>
                        </g>
                        <g id="Group-52" transform="translate(65.481300, 0.097400)">
                            <mask id="mask-12" fill="white">
                                <use xlink:href="#path-11"></use>
                            </mask>
                            <g id="Clip-51"></g>
                            <path d="M0.2835,0.45495 C0.4315,0.42595 0.5765,0.39895 0.7165,0.37295 C0.5755,0.39895 0.4315,0.42595 0.2835,0.45495" id="Fill-50" fill="#F16335" mask="url(#mask-12)"></path>
                        </g>
                        <g id="Group-55" transform="translate(70.188900, 7.592350)">
                            <mask id="mask-14" fill="white">
                                <use xlink:href="#path-13"></use>
                            </mask>
                            <g id="Clip-54"></g>
                            <path d="M0.6914,0.496 C0.6914,0.499 0.6914,0.502 0.6924,0.504 C0.6914,0.502 0.6914,0.499 0.6914,0.496" id="Fill-53" fill="#F16335" mask="url(#mask-14)"></path>
                        </g>
                        <g id="Group-58" transform="translate(66.582200, 0.000000)">
                            <mask id="mask-16" fill="white">
                                <use xlink:href="#path-15"></use>
                            </mask>
                            <g id="Clip-57"></g>
                            <path d="M0.301,0.34905 C0.438,0.32605 0.571,0.30405 0.699,0.28405 C0.571,0.30405 0.439,0.32605 0.301,0.34905" id="Fill-56" fill="#F16335" mask="url(#mask-16)"></path>
                        </g>
                        <path d="M63.0484,1.16155 C63.2044,1.12255 63.3584,1.08355 63.5094,1.04755 C63.3584,1.08355 63.2044,1.12255 63.0484,1.16155" id="Fill-59" fill="#F16335"></path>
                        <g id="Group-63" transform="translate(70.168700, 7.018450)">
                            <mask id="mask-18" fill="white">
                                <use xlink:href="#path-17"></use>
                            </mask>
                            <g id="Clip-62"></g>
                            <path d="M0.6712,0.4925 C0.6712,0.4975 0.6722,0.5025 0.6722,0.5075 C0.6722,0.5025 0.6712,0.4975 0.6712,0.4925" id="Fill-61" fill="#F16335" mask="url(#mask-18)"></path>
                        </g>
                        <g id="Group-66" transform="translate(66.075500, 0.043150)">
                            <mask id="mask-20" fill="white">
                                <use xlink:href="#path-19"></use>
                            </mask>
                            <g id="Clip-65"></g>
                            <path d="M0.2575,0.4022 C0.4245,0.3722 0.5865,0.3432 0.7425,0.3172 C0.5865,0.3432 0.4245,0.3722 0.2575,0.4022" id="Fill-64" fill="#F16335" mask="url(#mask-20)"></path>
                        </g>
                        <g id="Group-69" transform="translate(70.006850, 3.937950)">
                            <mask id="mask-22" fill="white">
                                <use xlink:href="#path-21"></use>
                            </mask>
                            <g id="Clip-68"></g>
                            <path d="M0.50485,0.4645 C0.50785,0.4885 0.51185,0.5115 0.51485,0.5355 C0.51185,0.5115 0.50785,0.4885 0.50485,0.4645" id="Fill-67" fill="#F16335" mask="url(#mask-22)"></path>
                        </g>
                        <path d="M63.7061,0.99925 C63.9091,0.95025 64.1081,0.90425 64.3031,0.86025 C64.1081,0.90425 63.9091,0.95025 63.7061,0.99925" id="Fill-70" fill="#F16335"></path>
                        <g id="Group-74" transform="translate(65.765400, 0.070600)">
                            <mask id="mask-24" fill="white">
                                <use xlink:href="#path-23"></use>
                            </mask>
                            <g id="Clip-73"></g>
                            <path d="M0.4325,0.39965 C0.4775,0.39165 0.5235,0.38265 0.5675,0.37465 C0.5235,0.38265 0.4775,0.39165 0.4325,0.39965" id="Fill-72" fill="#E5E5E4" mask="url(#mask-24)"></path>
                        </g>
                        <path d="M62.8983,1.19875 C62.8993,1.19875 62.8993,1.19875 62.9003,1.19975 C62.9493,1.18675 62.9993,1.17375 63.0483,1.16175 C62.9973,1.17475 62.9493,1.18575 62.8983,1.19875" id="Fill-75" fill="#E5E5E4"></path>
                        <path d="M63.5096,1.04705 C63.5746,1.03105 63.6416,1.01505 63.7056,0.99905 C63.6416,1.01505 63.5746,1.03105 63.5096,1.04705" id="Fill-77" fill="#E5E5E4"></path>
                        <path d="M64.3034,0.86015 C64.3644,0.84615 64.4244,0.83315 64.4844,0.82015 C64.4244,0.83315 64.3644,0.84615 64.3034,0.86015" id="Fill-79" fill="#E5E5E4"></path>
                        <g id="Group-83" transform="translate(65.206200, 0.123500)">
                            <mask id="mask-26" fill="white">
                                <use xlink:href="#path-25"></use>
                            </mask>
                            <g id="Clip-82"></g>
                            <path d="M0.4415,0.45155 C0.4815,0.44355 0.5195,0.43655 0.5585,0.42855 C0.5195,0.43655 0.4815,0.44355 0.4415,0.45155" id="Fill-81" fill="#E5E5E4" mask="url(#mask-26)"></path>
                        </g>
                        <path d="M64.9359,0.72145 C64.9899,0.70945 65.0449,0.69845 65.0989,0.68645 C65.0449,0.69845 64.9899,0.70945 64.9359,0.72145" id="Fill-84" fill="#E5E5E4"></path>
                        <g id="Group-88" transform="translate(66.350600, 0.018950)">
                            <mask id="mask-28" fill="white">
                                <use xlink:href="#path-27"></use>
                            </mask>
                            <g id="Clip-87"></g>
                            <path d="M0.467,0.341 C0.489,0.337 0.51,0.334 0.533,0.33 C0.51,0.334 0.49,0.337 0.467,0.341" id="Fill-86" fill="#E5E5E4" mask="url(#mask-28)"></path>
                        </g>
                        <path d="M70.4626,4.05245 C70.4786,4.16645 70.4956,4.28345 70.5116,4.40245 C70.4956,4.28345 70.4796,4.16645 70.4626,4.05245" id="Fill-89" fill="#E5E5E4"></path>
                        <g id="Group-93" transform="translate(70.088750, 4.472950)">
                            <mask id="mask-30" fill="white">
                                <use xlink:href="#path-29"></use>
                            </mask>
                            <g id="Clip-92"></g>
                            <path d="M0.43275,0 C0.55475,0.898 0.66675,1.915 0.75075,3.038 C0.66675,1.915 0.55475,0.898 0.43275,0" id="Fill-91" fill="#E5E5E4" mask="url(#mask-30)"></path>
                        </g>
                        <path d="M70.4022,3.64735 C70.4172,3.74435 70.4322,3.84235 70.4462,3.94335 C70.4322,3.84235 70.4172,3.74435 70.4022,3.64735" id="Fill-94" fill="#E5E5E4"></path>
                        <g id="Group-98" transform="translate(70.178750, 7.307250)">
                            <mask id="mask-32" fill="white">
                                <use xlink:href="#path-31"></use>
                            </mask>
                            <g id="Clip-97"></g>
                            <path d="M0.66225,0.219 C0.67625,0.404 0.68925,0.591 0.70125,0.781 C0.68925,0.591 0.67625,0.404 0.66225,0.219" id="Fill-96" fill="#E5E5E4" mask="url(#mask-32)"></path>
                        </g>
                        <path d="M70.3415,3.26255 C70.3555,3.34855 70.3695,3.43655 70.3835,3.52655 C70.3695,3.43655 70.3555,3.34855 70.3415,3.26255" id="Fill-99" fill="#E5E5E4"></path>
                        <path d="M70.2193,2.54655 C70.2323,2.61955 70.2453,2.69355 70.2593,2.77055 C70.2453,2.69355 70.2323,2.61955 70.2193,2.54655" id="Fill-101" fill="#E5E5E4"></path>
                        <path d="M70.2806,2.89635 C70.2936,2.97435 70.3076,3.05435 70.3206,3.13535 C70.3076,3.05435 70.2936,2.97435 70.2806,2.89635" id="Fill-103" fill="#E5E5E4"></path>
                        <g id="Group-107" transform="translate(62.899900, 0.183450)">
                            <mask id="mask-34" fill="white">
                                <use xlink:href="#path-33"></use>
                            </mask>
                            <g id="Clip-106"></g>
                            <path d="M7.981,7.9134 C7.981,7.9104 7.981,7.9074 7.98,7.9054 C7.968,7.7144 7.955,7.5274 7.941,7.3424 C7.941,7.3374 7.94,7.3324 7.94,7.3274 C7.855,6.2044 7.743,5.1874 7.622,4.2894 C7.618,4.2654 7.615,4.2424 7.612,4.2194 C7.596,4.1004 7.579,3.9834 7.563,3.8694 C7.557,3.8324 7.552,3.7954 7.547,3.7594 C7.532,3.6594 7.517,3.5604 7.502,3.4634 C7.496,3.4234 7.49,3.3824 7.484,3.3424 C7.47,3.2534 7.456,3.1654 7.442,3.0794 C7.435,3.0364 7.428,2.9934 7.421,2.9514 C7.407,2.8704 7.394,2.7914 7.381,2.7134 C7.374,2.6704 7.366,2.6284 7.359,2.5874 C7.346,2.5104 7.333,2.4364 7.319,2.3634 C7.312,2.3234 7.305,2.2834 7.298,2.2444 C7.284,2.1674 7.27,2.0934 7.257,2.0204 C7.251,1.9894 7.245,1.9574 7.239,1.9264 C7.219,1.8244 7.2,1.7244 7.181,1.6294 C6.971,0.5724 5.973,-0.1336 4.906,0.0204 C4.777,0.0394 4.639,0.0604 4.497,0.0824 C4.459,0.0884 4.42,0.0944 4.382,0.1004 C4.253,0.1204 4.121,0.1424 3.983,0.1654 C3.961,0.1694 3.94,0.1724 3.918,0.1764 C3.762,0.2024 3.6,0.2314 3.433,0.2624 C3.389,0.2704 3.343,0.2784 3.298,0.2864 C3.157,0.3124 3.013,0.3404 2.865,0.3694 C2.826,0.3764 2.788,0.3834 2.748,0.3914 C2.57,0.4264 2.387,0.4644 2.199,0.5034 C2.145,0.5144 2.09,0.5264 2.036,0.5384 C1.889,0.5694 1.738,0.6024 1.585,0.6364 C1.524,0.6494 1.465,0.6624 1.404,0.6764 C1.209,0.7204 1.01,0.7674 0.806,0.8154 C0.742,0.8314 0.675,0.8474 0.61,0.8634 C0.458,0.9004 0.304,0.9384 0.149,0.9784 C0.099,0.9904 0.05,1.0034 0,1.0154 C0.883,1.3164 1.704,1.7384 2.453,2.2864 C6.407,5.1824 7.602,11.0604 6.338,18.2234 C6.72,19.0794 7.051,19.9614 7.323,20.8674 C8.155,15.8664 8.207,11.4184 7.981,7.9134" id="Fill-105" fill="#DE562A" mask="url(#mask-34)"></path>
                        </g>
                        <path d="M24.104,63.61335 C24.234,63.69735 24.364,63.78335 24.492,63.87335 C24.364,63.78335 24.235,63.69635 24.104,63.61335" id="Fill-108" fill="#FFD160"></path>
                        <path d="M24.8661,64.15225 C24.7441,64.05725 24.6191,63.96425 24.4911,63.87325 C24.6191,63.96425 24.7431,64.05725 24.8661,64.15225" id="Fill-110" fill="#FFD160"></path>
                        <g id="Group-114" transform="translate(0.000000, 97.386450)">
                            <mask id="mask-36" fill="white">
                                <use xlink:href="#path-35"></use>
                            </mask>
                            <g id="Clip-113"></g>
                            <path d="" id="Fill-112" fill="#FFD160" mask="url(#mask-36)"></path>
                        </g>
                    </g>
                </g>
            </g>
        </g>
    </g>
</svg>