<?xml version="1.0" encoding="UTF-8"?>
<svg width="39px" height="21px" viewBox="0 0 39 21" version="1.1" xmlns="http://www.w3.org/2000/svg" xmlns:xlink="http://www.w3.org/1999/xlink">
    <title>Arrow</title>
    <g id="Desktop" stroke="none" stroke-width="1" fill="none" fill-rule="evenodd">
        <g id="Services-Opportunity-Checklist---Closed" transform="translate(-1161.000000, -1024.000000)" fill="#FFFFFF" fill-rule="nonzero">
            <g id="!-DROP-DOWN" transform="translate(0.000000, 920.000000)">
                <g id="01" transform="translate(59.000000, 44.000000)">
                    <g id="Group" transform="translate(1104.000000, 52.000000)">
                        <g id="Arrow" transform="translate(17.944444, 19.000000) rotate(-270.000000) translate(-17.944444, -19.000000) ">
                            <path d="M7.6384376,0.599031762 C8.25041331,-0.0866553073 9.26425579,-0.190710546 9.99599568,0.323166939 L10.1726577,0.464530916 L26.711256,15.4743512 C28.1845309,16.811441 28.3039634,19.099728 26.978016,20.5853834 L26.8481436,20.7234212 L10.2411015,37.4700183 C9.54032734,38.1766813 8.40414796,38.1766813 7.70337382,37.4700183 C7.05650538,36.817714 7.00674627,35.7912959 7.55409649,35.0814356 L7.70337382,34.9109652 L24.3104159,18.1643681 L7.77181761,3.15454783 C7.03518018,2.48600293 6.97546392,1.34185942 7.6384376,0.599031762 Z" id="Path-2-Copy"></path>
                        </g>
                    </g>
                </g>
            </g>
        </g>
    </g>
</svg>