<?xml version="1.0" encoding="UTF-8"?>
<svg width="120px" height="40px" viewBox="0 0 120 40" version="1.1" xmlns="http://www.w3.org/2000/svg" xmlns:xlink="http://www.w3.org/1999/xlink">
    <title>Logo/Lenovo</title>
    <g id="Symbols" stroke="none" stroke-width="1" fill="none" fill-rule="evenodd">
        <g id="Footer/Desktop" transform="translate(-30.000000, -30.000000)">
            <g id="Group" transform="translate(30.000000, 30.000000)">
                <g id="Group-17" transform="translate(60.000000, 20.000000) rotate(-360.000000) translate(-60.000000, -20.000000) ">
                    <polygon id="Fill-1" fill="#E02827" points="0 39.9363429 119.797714 39.9363429 119.797714 0.000342857143 0 0.000342857143"></polygon>
                    <g id="Group-16" transform="translate(10.285714, 9.079200)" fill="#FEFEFE">
                        <path d="M41.8996571,4.38057143 C40.1305143,4.38057143 38.1179429,5.20114286 36.8882286,6.84342857 L36.8893714,6.84 L36.8882286,6.84114286 L36.8893714,4.63771429 L32.6676571,4.63771429 L32.6676571,20.0091429 L36.8882286,20.0091429 L36.8882286,11.2628571 C36.8882286,9.68914286 38.1088,8.016 40.3670857,8.016 C42.1145143,8.016 43.9225143,9.22971429 43.9225143,11.2628571 L43.9225143,20.0091429 L48.1419429,20.0091429 L48.1419429,10.4811429 C48.1419429,6.94628571 45.6128,4.38057143 41.8996571,4.38057143" id="Fill-2"></path>
                        <polygon id="Fill-4" points="78.1395429 4.63897143 74.3235429 15.1086857 70.5075429 4.63897143 65.6869714 4.63897143 72.0115429 20.0035429 76.6355429 20.0035429 82.9601143 4.63897143"></polygon>
                        <path d="M28.1763429,15.2829714 C26.3992,16.5972571 25.3843429,16.9115429 23.7649143,16.9115429 C22.3066286,16.9115429 21.1660571,16.4589714 20.3614857,15.6646857 L31.1512,11.1881143 C30.9157714,9.52068571 30.2826286,8.0304 29.3089143,6.89782857 C27.8906286,5.25097143 25.7923429,4.38011429 23.2380571,4.38011429 C18.5969143,4.38011429 15.0974857,7.80411429 15.0974857,12.3252571 C15.0974857,16.9641143 18.6049143,20.2704 23.7020571,20.2704 C26.5580571,20.2704 29.4792,18.9161143 30.8449143,17.3344 L28.1763429,15.2829714 Z M20.0677714,9.26925714 C20.7866286,8.30468571 21.9317714,7.73782857 23.3134857,7.73782857 C24.8346286,7.73782857 25.9889143,8.6064 26.5854857,9.88868571 L19.2117714,12.9469714 C19.0094857,11.3778286 19.4117714,10.1504 20.0677714,9.26925714 L20.0677714,9.26925714 Z" id="Fill-6"></path>
                        <polygon id="Fill-8" points="14.6942857 16.1333714 5.10114286 16.1333714 5.10114286 0.0419428571 0.823428571 0.0419428571 0.823428571 20.0088 14.6942857 20.0088"></polygon>
                        <path d="M90.5390857,20.2678857 C85.9230857,20.2678857 82.3070857,16.8290286 82.3070857,12.3238857 C82.3070857,7.86902857 85.9470857,4.37988571 90.5962286,4.37988571 C95.2122286,4.37988571 98.8282286,7.81874286 98.8282286,12.3238857 C98.8282286,16.7776 95.1859429,20.2678857 90.5390857,20.2678857 M90.5390857,7.99702857 C88.1813714,7.99702857 86.4693714,9.78217143 86.4693714,12.3238857 C86.4693714,14.7501714 88.2842286,16.6507429 90.5962286,16.6507429 C92.9528,16.6507429 94.6636571,14.8153143 94.6636571,12.3238857 C94.6636571,9.8976 92.8510857,7.99702857 90.5390857,7.99702857" id="Fill-10"></path>
                        <path d="M58.0435429,20.2678857 C53.4275429,20.2678857 49.8115429,16.8290286 49.8115429,12.3238857 C49.8115429,7.86902857 53.4526857,4.37988571 58.1006857,4.37988571 C62.7155429,4.37988571 66.3326857,7.81874286 66.3326857,12.3238857 C66.3326857,16.7776 62.6915429,20.2678857 58.0435429,20.2678857 M58.0435429,7.99702857 C55.6858286,7.99702857 53.9761143,9.78217143 53.9761143,12.3238857 C53.9761143,14.7501714 55.7875429,16.6507429 58.1006857,16.6507429 C60.4584,16.6507429 62.1692571,14.8153143 62.1692571,12.3238857 C62.1692571,9.8976 60.3566857,7.99702857 58.0435429,7.99702857" id="Fill-12"></path>
                        <path d="M99.4041143,18.1835429 L98.7218286,18.1835429 L98.7218286,17.7961143 L100.5104,17.7961143 L100.5104,18.1835429 L99.8281143,18.1835429 L99.8281143,20.0086857 L99.4041143,20.0086857 L99.4041143,18.1835429 Z M100.984686,17.7961143 L101.437257,17.7961143 L102.105829,18.8441143 L102.773257,17.7961143 L103.212114,17.7961143 L103.212114,20.0086857 L102.804114,20.0086857 L102.804114,18.4349714 L102.119543,19.4989714 L102.076114,19.4989714 L101.393829,18.4349714 L101.393829,20.0086857 L100.984686,20.0086857 L100.984686,17.7961143 Z" id="Fill-14"></path>
                    </g>
                </g>
            </g>
        </g>
    </g>
</svg>