<?xml version="1.0" encoding="UTF-8"?>
<svg width="88px" height="85px" viewBox="0 0 88 85" version="1.1" xmlns="http://www.w3.org/2000/svg" xmlns:xlink="http://www.w3.org/1999/xlink">
    <title>Illustration/Catalogue-2</title>
    <defs>
        <polygon id="path-1" points="0 0 52.8250254 0 52.8250254 69.7782668 0 69.7782668"></polygon>
        <polygon id="path-3" points="0 85 87.6784304 85 87.6784304 0 0 0"></polygon>
    </defs>
    <g id="Page-1" stroke="none" stroke-width="1" fill="none" fill-rule="evenodd">
        <g id="Services-Opportunity-Checklist---Closed-Copy" transform="translate(-92.000000, -993.000000)">
            <g id="!-DROP-DOWN" transform="translate(0.000000, 920.000000)">
                <g id="01" transform="translate(59.000000, 44.000000)">
                    <g id="Illustration/Catalogue-2" transform="translate(33.000000, 29.000000)">
                        <g id="Group-3" transform="translate(34.853405, 0.000120)">
                            <mask id="mask-2" fill="white">
                                <use xlink:href="#path-1"></use>
                            </mask>
                            <g id="Clip-2"></g>
                            <path d="M51.3541667,0 L0,0 L0,69.7782668 L51.3541667,69.7782668 C52.1670475,69.7782668 52.8252652,69.1188501 52.8252652,68.3059693 L52.8252652,1.47109851 C52.8252652,0.658217671 52.1670475,0 51.3541667,0" id="Fill-1" fill="#EAEFF2" mask="url(#mask-2)"></path>
                        </g>
                        <mask id="mask-4" fill="white">
                            <use xlink:href="#path-3"></use>
                        </mask>
                        <g id="Clip-5"></g>
                        <polygon id="Fill-4" fill="#D4D6DB" mask="url(#mask-4)" points="47.4444256 32.389345 83.0661109 32.389345 83.0661109 30.2624267 47.4444256 30.2624267"></polygon>
                        <polygon id="Fill-6" fill="#D4D6DB" mask="url(#mask-4)" points="47.4444256 39.9846254 83.0661109 39.9846254 83.0661109 37.8577071 47.4444256 37.8577071"></polygon>
                        <polygon id="Fill-7" fill="#D4D6DB" mask="url(#mask-4)" points="47.4444256 47.5799058 83.0661109 47.5799058 83.0661109 45.4529875 47.4444256 45.4529875"></polygon>
                        <polygon id="Fill-8" fill="#D4D6DB" mask="url(#mask-4)" points="47.4444256 55.1739872 83.0661109 55.1739872 83.0661109 53.0470689 47.4444256 53.0470689"></polygon>
                        <polygon id="Fill-9" fill="#D4D6DB" mask="url(#mask-4)" points="47.4444256 62.7692677 83.0661109 62.7692677 83.0661109 60.6423494 47.4444256 60.6423494"></polygon>
                        <polygon id="Fill-10" fill="#FAD362" mask="url(#mask-4)" points="38.6502059 24.8312317 83.0661109 24.8312317 83.0661109 4.29460054 38.6502059 4.29460054"></polygon>
                        <polygon id="Fill-11" fill="#64798A" mask="url(#mask-4)" points="34.8529254 69.7777872 52.8262243 84.9995204 52.8262243 15.2224526 34.8529254 -0.000479575717"></polygon>
                        <path d="M1.47109851,15.2224526 C0.658217671,15.2224526 0,15.8806703 0,16.6935511 L0,83.5284219 C0,84.3413028 0.658217671,84.9995204 1.47109851,84.9995204 L52.8252652,84.9995204 L52.8252652,15.2224526 L1.47109851,15.2224526 Z" id="Fill-12" fill="#FEFEFE" mask="url(#mask-4)"></path>
                        <path d="M14.8943029,21.7120712 L7.09999859,21.7120712 C6.88898527,21.7120712 6.71753696,21.8835195 6.71753696,22.0945328 L6.71753696,31.3443495 C6.71753696,31.5553628 6.88898527,31.7268111 7.09999859,31.7268111 L14.8943029,31.7268111 C15.1053162,31.7268111 15.2767646,31.5553628 15.2767646,31.3443495 L15.2767646,22.0945328 C15.2767646,21.8835195 15.1053162,21.7120712 14.8943029,21.7120712" id="Fill-13" fill="#6CBD4A" mask="url(#mask-4)"></path>
                        <path d="M30.3100245,21.7120712 L22.5157202,21.7120712 C22.3047069,21.7120712 22.1332586,21.8835195 22.1332586,22.0945328 L22.1332586,31.3443495 C22.1332586,31.5553628 22.3047069,31.7268111 22.5157202,31.7268111 L30.3100245,31.7268111 C30.5210379,31.7268111 30.6924862,31.5553628 30.6924862,31.3443495 L30.6924862,22.0945328 C30.6924862,21.8835195 30.5210379,21.7120712 30.3100245,21.7120712" id="Fill-14" fill="#F16A21" mask="url(#mask-4)"></path>
                        <path d="M45.7258661,21.7120712 L37.9315617,21.7120712 C37.7205484,21.7120712 37.5491001,21.8835195 37.5491001,22.0945328 L37.5491001,31.3443495 C37.5491001,31.5553628 37.7205484,31.7268111 37.9315617,31.7268111 L45.7258661,31.7268111 C45.9368794,31.7268111 46.1083277,31.5553628 46.1083277,31.3443495 L46.1083277,22.0945328 C46.1083277,21.8835195 45.9368794,21.7120712 45.7258661,21.7120712" id="Fill-15" fill="#47C0E0" mask="url(#mask-4)"></path>
                        <polygon id="Fill-16" fill="#EAEFF2" mask="url(#mask-4)" points="6.71885579 39.3815589 45.4062288 39.3815589 45.4062288 37.2318608 6.71885579 37.2318608"></polygon>
                        <polygon id="Fill-17" fill="#EAEFF2" mask="url(#mask-4)" points="6.71885579 47.8160968 45.4062288 47.8160968 45.4062288 45.6663987 6.71885579 45.6663987"></polygon>
                        <polygon id="Fill-18" fill="#EAEFF2" mask="url(#mask-4)" points="6.71885579 56.2506347 45.4062288 56.2506347 45.4062288 54.1009366 6.71885579 54.1009366"></polygon>
                        <polygon id="Fill-19" fill="#EAEFF2" mask="url(#mask-4)" points="6.71885579 64.6851726 45.4062288 64.6851726 45.4062288 62.5354745 6.71885579 62.5354745"></polygon>
                        <polygon id="Fill-20" fill="#EAEFF2" mask="url(#mask-4)" points="6.71885579 73.1197106 45.4062288 73.1197106 45.4062288 70.9700124 6.71885579 70.9700124"></polygon>
                    </g>
                </g>
            </g>
        </g>
    </g>
</svg>