<?xml version="1.0" encoding="UTF-8"?>
<svg width="93px" height="80px" viewBox="0 0 93 80" version="1.1" xmlns="http://www.w3.org/2000/svg" xmlns:xlink="http://www.w3.org/1999/xlink">
    <title>Illustration/Support</title>
    <defs>
        <polygon id="path-1" points="7.52544104e-15 0 61.8987224 0 61.8987224 53.3327332 7.52544104e-15 53.3327332"></polygon>
        <polygon id="path-3" points="0 80 91.7180115 80 91.7180115 0 0 0"></polygon>
    </defs>
    <g id="Page-1" stroke="none" stroke-width="1" fill="none" fill-rule="evenodd">
        <g id="Services-Opportunity-Checklist---Closed-Copy" transform="translate(-86.000000, -2308.000000)">
            <g id="!-DROP-DOWN" transform="translate(0.000000, 920.000000)">
                <g id="04" transform="translate(59.000000, 1352.000000)">
                    <g id="Illustration/Support" transform="translate(27.871784, 36.001373)">
                        <g id="Group-3" transform="translate(29.819077, 0.000000)">
                            <mask id="mask-2" fill="white">
                                <use xlink:href="#path-1"></use>
                            </mask>
                            <g id="Clip-2"></g>
                            <path d="M53.4025286,34.7220229 C58.4025948,32.5307209 61.8987224,27.5444231 61.8987224,21.7362547 C61.8987224,13.905183 55.5504071,7.55686768 47.7193354,7.55686768 C47.6166016,7.55686768 47.5181042,7.56957702 47.4153704,7.57169524 C43.4299331,2.94231813 37.5380949,-0.000953200503 30.9493612,-0.000953200503 C24.3606275,-0.000953200503 18.4687893,2.94231813 14.4833521,7.57169524 C14.3806183,7.56957702 14.2821209,7.55686768 14.179387,7.55686768 C6.34831535,7.55686768 7.52544104e-15,13.905183 7.52544104e-15,21.7362547 C7.52544104e-15,29.5673264 6.34831535,35.9156418 14.179387,35.9156418 C14.2821209,35.9156418 14.3806183,35.9018733 14.4833521,35.8997551 C18.4687893,40.5291322 24.3606275,43.4724035 30.9493612,43.4724035 C35.4696498,43.4724035 39.6658503,42.0913219 43.143973,39.7295029 L60.8915072,53.3327332 L53.4025286,34.7220229 Z" id="Fill-1" fill="#ECECEC" mask="url(#mask-2)"></path>
                        </g>
                        <path d="M8.49619382,61.3888661 C3.49612762,59.197564 0,54.2112663 0,48.4030979 C0,40.5720262 6.34831535,34.2237109 14.179387,34.2237109 C14.2821209,34.2237109 14.3806183,34.2364202 14.4833521,34.2385384 C18.4687893,29.6091613 24.3606275,26.66589 30.9493612,26.66589 C37.5380949,26.66589 43.4299331,29.6091613 47.4153704,34.2385384 C47.5181042,34.2364202 47.6166016,34.2237109 47.7193354,34.2237109 C55.5504071,34.2237109 61.8987224,40.5720262 61.8987224,48.4030979 C61.8987224,56.2341696 55.5504071,62.5814258 47.7193354,62.5814258 C47.6166016,62.5814258 47.5181042,62.5687165 47.4153704,62.5665983 C43.4299331,67.1959754 37.5380949,70.1392467 30.9493612,70.1392467 C26.4290726,70.1392467 22.2328722,68.7581651 18.7547495,66.3963461 L1.0072152,79.9995764 L8.49619382,61.3888661 Z" id="Fill-4" fill="#FEFEFE"></path>
                        <mask id="mask-4" fill="white">
                            <use xlink:href="#path-3"></use>
                        </mask>
                        <g id="Clip-7"></g>
                        <polygon id="Fill-6" fill="#DD4936" mask="url(#mask-4)" points="47.7373403 31.6992123 51.347852 31.6992123 51.347852 28.0876415 47.7373403 28.0876415"></polygon>
                        <polygon id="Fill-8" fill="#DD4936" mask="url(#mask-4)" points="54.1206063 31.6992123 57.731118 31.6992123 57.731118 28.0876415 54.1206063 28.0876415"></polygon>
                        <polygon id="Fill-9" fill="#DD4936" mask="url(#mask-4)" points="60.5049315 31.6992123 64.1154432 31.6992123 64.1154432 28.0876415 60.5049315 28.0876415"></polygon>
                        <path d="M66.7229761,31.6992123 L70.3334878,31.6992123 L70.3334878,28.0876415 L66.7229761,28.0876415 L66.7229761,31.6992123 Z M73.7999603,15.696035 C73.7999603,19.4791818 70.3334878,19.8265705 70.3334878,23.1490038 L70.3334878,25.834911 L66.7229761,25.834911 L66.7229761,23.8427219 C66.7229761,19.0470643 70.1597935,17.9498246 70.1597935,15.6091878 C70.1597935,14.6856424 69.4374793,14.0205203 68.5139339,14.0205203 C67.6465215,14.0205203 66.8956113,14.8296816 66.8956113,16.2457139 L66.8956113,17.0538161 L63.2850996,17.0538161 L63.2850996,15.696035 C63.2850996,12.9518766 65.4520421,11.1323228 68.5139339,11.1323228 C71.6044218,11.1323228 73.7999603,12.9222215 73.7999603,15.696035 L73.7999603,15.696035 Z" id="Fill-10" fill="#DD4936" mask="url(#mask-4)"></path>
                        <polygon id="Fill-11" fill="#0893A1" mask="url(#mask-4)" points="19.5681472 58.1473489 23.1786589 58.1473489 23.1786589 54.5368372 19.5681472 54.5368372"></polygon>
                        <polygon id="Fill-12" fill="#0893A1" mask="url(#mask-4)" points="25.9524724 58.1473489 29.562984 58.1473489 29.562984 54.5368372 25.9524724 54.5368372"></polygon>
                        <polygon id="Fill-13" fill="#0893A1" mask="url(#mask-4)" points="32.3357384 58.1473489 35.9462501 58.1473489 35.9462501 54.5368372 32.3357384 54.5368372"></polygon>
                        <path d="M38.7200635,58.1473489 L42.3305752,58.1473489 L42.3305752,54.5368372 L38.7200635,54.5368372 L38.7200635,58.1473489 Z M38.7200635,52.2830476 L42.3305752,52.2830476 L42.3305752,37.9267889 L38.7200635,37.9267889 L38.7200635,52.2830476 Z" id="Fill-14" fill="#0893A1" mask="url(#mask-4)"></path>
                    </g>
                </g>
            </g>
        </g>
    </g>
</svg>