<?xml version="1.0" encoding="UTF-8"?>
<svg width="94px" height="90px" viewBox="0 0 94 90" version="1.1" xmlns="http://www.w3.org/2000/svg" xmlns:xlink="http://www.w3.org/1999/xlink">
    <title>Illustration/Manage</title>
    <defs>
        <polygon id="path-1" points="0 0 12.4020664 0 12.4020664 10.2824436 0 10.2824436"></polygon>
        <polygon id="path-3" points="1.9823671e-15 0 5.99766505 0 5.99766505 17.2395581 1.9823671e-15 17.2395581"></polygon>
        <polygon id="path-5" points="0 1.18942026e-14 33.945709 1.18942026e-14 33.945709 18.2841093 0 18.2841093"></polygon>
        <polygon id="path-7" points="0 0 5.99700847 0 5.99700847 17.2395581 0 17.2395581"></polygon>
        <polygon id="path-9" points="7.92946841e-15 1.18942026e-14 33.9456562 1.18942026e-14 33.9456562 18.2841093 7.92946841e-15 18.2841093"></polygon>
    </defs>
    <g id="Page-1" stroke="none" stroke-width="1" fill="none" fill-rule="evenodd">
        <g id="Services-Opportunity-Checklist---Closed-Copy" transform="translate(-87.000000, -2479.000000)">
            <g id="!-DROP-DOWN" transform="translate(0.000000, 920.000000)">
                <g id="05" transform="translate(59.000000, 1529.000000)">
                    <g id="Illustration/Manage" transform="translate(28.871784, 30.466373)">
                        <polygon id="Fill-1" fill="#E5E5E4" points="47.6948088 20.0379732 46.2920302 21.4686512 44.8022056 20.0379732 42.8726875 17.8328096 42.8726875 14.4324385 49.709141 14.4324385 49.709141 17.8328096"></polygon>
                        <g id="Group-49">
                            <path d="M39.9462703,9.03146167 C39.9127911,8.06168073 40.6571454,8.73796065 40.6571454,8.73796065 C40.6571454,8.73796065 39.1349576,0.293389425 46.2905794,0.293389425 C53.4462013,0.293389425 51.9240135,8.73796065 51.9240135,8.73796065 C51.9240135,8.73796065 52.6705997,8.06168073 52.6360046,9.03146167 C52.6047573,10.0034746 52.3748668,10.6831024 52.3748668,10.6831024 C52.3748668,10.6831024 52.281125,11.8146995 51.2443857,12.3313952 C51.2443857,12.3313952 51.0502063,14.275421 50.2411255,15.0845018 C49.4309288,15.8958145 48.1352836,17.7427506 46.2905794,17.6746762 C44.4447593,17.7427506 43.1479981,15.8958145 42.3400334,15.0845018 C41.5298366,14.275421 41.3378892,12.3313952 41.3378892,12.3313952 C40.2989179,11.8146995 40.2040601,10.6831024 40.2040601,10.6831024 C40.2040601,10.6831024 39.9775175,10.0034746 39.9462703,9.03146167" id="Fill-2" fill="#FEFEFE"></path>
                            <polygon id="Fill-4" fill="#E7D9C3" points="51.9259106 32.7683289 41.1032 32.7683289 41.1032 20.5261 46.3192599 20.8675879 51.8846196 20.5261"></polygon>
                            <path d="M48.5245351,32.8404208 C48.2154105,30.2591742 47.8114281,27.7303783 47.6496119,26.8643829 C47.3594588,25.3098319 47.1641635,23.6046244 47.1641635,23.6046244 C47.266833,23.1481912 47.6741633,22.653815 47.8471392,22.106988 C47.8906622,21.9719552 47.9263733,21.8592419 47.7433537,21.6773382 L47.1585836,20.8358942 C47.1061328,20.7879074 47.0101591,20.7432684 46.9387368,20.7432684 L46.2903562,20.7432684 L45.6419756,20.7432684 C45.5716693,20.7432684 45.4734637,20.7879074 45.4210129,20.8358942 L44.8407067,21.6773382 C44.6554551,21.8592419 44.6911663,21.9719552 44.7358052,22.106988 C44.9087811,22.653815 45.3149954,23.1481912 45.417665,23.6046244 C45.417665,23.6046244 45.2234856,25.3098319 44.9299846,26.8643829 C44.7681684,27.7303783 44.3675339,30.2591742 44.0572933,32.8404208 C44.0572933,32.8404208 41.5787163,37.4505072 45.542654,37.9605071 C45.7714286,37.9884064 46.8751263,37.9928703 47.1273363,37.9605071 C50.9640531,37.4192599 48.5245351,32.8404208 48.5245351,32.8404208" id="Fill-6" fill="#F16F6A"></path>
                            <path d="M41.5954559,19.6756166 C40.5910797,20.0963386 33.177668,22.7188763 32.7234668,22.8483292 C32.2703816,22.9777821 31.9802285,23.7221364 31.8831388,24.0145214 C31.7838171,24.3057905 29.8743865,31.0083272 29.3253276,33.9243658 C29.0586099,35.3371882 37.1862447,37.8202292 45.5538137,37.9597259 L41.5954559,19.6756166 Z M50.9852566,19.6756166 C51.9896327,20.0963386 59.4019285,22.7188763 59.8561297,22.8483292 C60.3092149,22.9777821 60.6016,23.7221364 60.6986897,24.0145214 C60.7957794,24.3057905 62.70521,31.0083272 63.2587328,33.9243658 C63.5232185,35.3316084 55.4647741,37.7990257 47.1329162,37.9597259 L50.9852566,19.6756166 Z" id="Fill-8" fill="#3A3732"></path>
                            <path d="M46.9371745,20.7437148 L49.2896465,23.6831889 L51.4780705,19.5831024 L49.8509812,17.6770197 L46.9371745,20.7437148 Z M45.6415293,20.7437148 L43.2924051,23.6831889 L41.1028652,19.5831024 L42.7109829,17.6770197 L45.6415293,20.7437148 Z" id="Fill-10" fill="#FFF5E1"></path>
                            <g id="Group-14" transform="translate(40.101955, 0.000000)">
                                <mask id="mask-2" fill="white">
                                    <use xlink:href="#path-1"></use>
                                </mask>
                                <g id="Clip-13"></g>
                                <path d="M6.0618503,0.00145076551 C0.68285819,0.110816165 -0.126222574,5.40164637 0.0143900827,6.97963286 C0.110363801,8.05543128 0.208569466,8.56989505 0.43846,9.1524332 C0.668350535,9.73162343 0.851370183,9.94589033 0.903820936,10.1077065 C1.12701563,10.7627829 1.17053859,9.38232373 1.21852545,9.14238944 C1.83454281,6.17166807 7.38316289,7.34344021 9.47784509,5.02333137 C9.47784509,5.02333137 8.72344702,6.25313413 11.1573852,9.49615303 C11.3058096,9.69033241 11.3292451,10.5518639 11.501105,10.1077065 C11.5580196,9.94923825 11.7354594,9.73162343 11.9653499,9.1524332 C12.1952405,8.56989505 12.2934461,8.05543128 12.3905358,6.97963286 C12.5311485,5.40164637 11.4408424,-0.110146581 6.0618503,0.00145076551" id="Fill-12" fill="#3A3732" mask="url(#mask-2)"></path>
                            </g>
                            <polygon id="Fill-15" fill="#E5E5E4" points="18.3756191 71.0547003 16.9728405 72.4864942 15.4841319 71.0547003 13.5534978 68.8495367 13.5534978 65.4491655 20.3899512 65.4491655 20.3899512 68.8495367"></polygon>
                            <path d="M10.6262994,60.0481887 C10.5939361,59.0806397 11.3394064,59.7569197 11.3394064,59.7569197 C11.3394064,59.7569197 9.81610262,51.3112325 16.9728405,51.3112325 C24.1284623,51.3112325 22.6040426,59.7569197 22.6040426,59.7569197 C22.6040426,59.7569197 23.3517448,59.0806397 23.3182656,60.0481887 C23.2870183,61.0202016 23.0571278,61.7009454 23.0571278,61.7009454 C23.0571278,61.7009454 22.9622701,62.8325425 21.9255307,63.3503542 C21.9255307,63.3503542 21.7313513,65.293264 20.9233865,66.1012288 C20.1131898,66.9125415 18.8175446,68.7594776 16.9728405,68.6925192 C15.1259044,68.7594776 13.8302592,66.9125415 13.0211784,66.1012288 C12.2109817,65.293264 12.0201502,63.3503542 12.0201502,63.3503542 C10.9811789,62.8325425 10.8863212,61.7009454 10.8863212,61.7009454 C10.8863212,61.7009454 10.6597786,61.0202016 10.6262994,60.0481887" id="Fill-17" fill="#FEFEFE"></path>
                            <polygon id="Fill-19" fill="#E7D9C3" points="22.6067209 83.785056 11.7851262 83.785056 11.7851262 71.543943 17.0011862 71.8843149 22.5665459 71.543943"></polygon>
                            <g id="Group-23" transform="translate(13.973716, 71.760442)">
                                <mask id="mask-4" fill="white">
                                    <use xlink:href="#path-3"></use>
                                </mask>
                                <g id="Clip-22"></g>
                                <path d="M5.23319185,12.0982684 C4.9240672,9.51478978 4.5200848,6.98822585 4.35826865,6.11888252 C4.06699957,4.5676794 3.87282019,2.86135597 3.87282019,2.86135597 C3.97437378,2.40492282 4.38282007,1.91166255 4.55467998,1.36483555 C4.59820295,1.22868679 4.6339141,1.11708944 4.45089445,0.935185766 L3.86612435,0.0937417713 C3.81478957,0.0435229652 3.71769988,0 3.64627758,0 L2.99901297,0 L2.34951641,0 C2.27921008,0 2.18100441,0.0435229652 2.12855366,0.0937417713 L1.54824746,0.935185766 C1.36299586,1.11708944 1.39982299,1.22868679 1.44334595,1.36483555 C1.61632184,1.91166255 2.02253618,2.40492282 2.12632171,2.86135597 C2.12632171,2.86135597 1.93102636,4.5676794 1.63864131,6.11888252 C1.47570918,6.98822585 1.07507471,9.51478978 0.765950058,12.0982684 C0.765950058,12.0982684 -1.71374299,16.7061228 2.25019477,17.2183546 C2.47785336,17.245138 3.58378306,17.2496019 3.83599307,17.2161227 C7.67270985,16.6771075 5.23319185,12.0982684 5.23319185,12.0982684" id="Fill-21" fill="#F16F6A" mask="url(#mask-4)"></path>
                            </g>
                            <g id="Group-26" transform="translate(0.000000, 70.694018)">
                                <mask id="mask-6" fill="white">
                                    <use xlink:href="#path-5"></use>
                                </mask>
                                <g id="Clip-25"></g>
                                <path d="M12.2771589,1.18942026e-14 C11.2716668,0.41849005 3.85937104,3.04437562 3.40628581,3.17159659 C2.95208461,3.29993354 2.66081554,4.04540382 2.56372585,4.33667289 C2.46552018,4.62905794 0.556089579,11.3327106 0.00591465938,14.2487492 C-0.259687026,15.6604557 7.86906371,18.1446126 16.2344008,18.2841093 L12.2771589,1.18942026e-14 Z M21.6669597,1.18942026e-14 C22.6713358,0.41849005 30.0847475,3.04437562 30.5389487,3.17159659 C30.990918,3.29993354 31.283303,4.04540382 31.3803927,4.33667289 C31.4785984,4.62905794 33.386913,11.3327106 33.9393199,14.2487492 C34.2049216,15.6537598 26.1464772,18.1234091 17.8146193,18.2829933 L21.6669597,1.18942026e-14 Z" id="Fill-24" fill="#3A3732" mask="url(#mask-6)"></path>
                            </g>
                            <path d="M17.6179847,71.7604419 L19.9704568,74.701032 L22.1599967,70.6009454 L20.5317915,68.6959787 L17.6179847,71.7604419 Z M16.3234555,71.7604419 L13.9732154,74.701032 L11.7847914,70.6009454 L13.3929092,68.6959787 L16.3234555,71.7604419 Z" id="Fill-27" fill="#FFF5E1"></path>
                            <path d="M16.8462891,51.0181778 C11.467297,51.1297752 10.6571002,56.4183734 10.7977129,57.9963599 C10.8925706,59.0721583 10.9918923,59.5888541 11.2228988,60.1691603 C11.4516733,60.7483505 11.634693,60.9637334 11.6871437,61.1244335 C11.9114544,61.77951 11.9538614,60.4012827 12.0029642,60.1613484 C12.6178656,57.1883951 18.1676017,58.3601673 20.2622839,56.0422904 C20.2622839,56.0422904 19.5067698,57.2687452 21.940708,60.5128801 C22.0891324,60.7070595 22.1125679,61.568591 22.2844278,61.1244335 C22.3413424,60.9670813 22.5187822,60.7483505 22.7475568,60.1691603 C22.9785633,59.5888541 23.0767689,59.0721583 23.1749746,57.9963599 C23.3144713,56.4183734 22.2241652,50.9065805 16.8462891,51.0181778" id="Fill-29" fill="#3A3732"></path>
                            <polygon id="Fill-31" fill="#E5E5E4" points="77.2358541 71.0547003 75.8330754 72.4864942 74.3443668 71.0547003 72.4148487 68.8495367 72.4148487 65.4491655 79.2501862 65.4491655 79.2501862 68.8495367"></polygon>
                            <path d="M69.4879851,60.0481887 C69.4545059,59.0806397 70.1988602,59.7569197 70.1988602,59.7569197 C70.1988602,59.7569197 68.6766724,51.3112325 75.8322943,51.3112325 C82.9879161,51.3112325 81.4646124,59.7569197 81.4646124,59.7569197 C81.4646124,59.7569197 82.2123146,59.0806397 82.1788354,60.0481887 C82.1464721,61.0202016 81.9165816,61.7009454 81.9165816,61.7009454 C81.9165816,61.7009454 81.8217239,62.8325425 80.7861005,63.3503542 C80.7861005,63.3503542 80.5919211,65.293264 79.7828403,66.1012288 C78.9726436,66.9125415 77.6769984,68.7594776 75.8322943,68.6925192 C73.9864742,68.7594776 72.689713,66.9125415 71.8817482,66.1012288 C71.0715515,65.293264 70.879604,63.3503542 70.879604,63.3503542 C69.8406327,62.8325425 69.745775,61.7009454 69.745775,61.7009454 C69.745775,61.7009454 69.5192324,61.0202016 69.4879851,60.0481887" id="Fill-33" fill="#FEFEFE"></path>
                            <polygon id="Fill-35" fill="#E7D9C3" points="81.4668443 83.785056 70.6452496 83.785056 70.6452496 71.543943 75.8613096 71.8843149 81.4266693 71.543943"></polygon>
                            <g id="Group-39" transform="translate(72.833938, 71.760442)">
                                <mask id="mask-8" fill="white">
                                    <use xlink:href="#path-7"></use>
                                </mask>
                                <g id="Clip-38"></g>
                                <path d="M5.23253527,12.0982684 C4.92341062,9.51478978 4.51942823,6.98822585 4.35761208,6.11888252 C4.06745897,4.5676794 3.87216362,2.86135597 3.87216362,2.86135597 C3.97483318,2.40492282 4.38216349,1.91166255 4.55513938,1.36483555 C4.59866234,1.22868679 4.6343735,1.11708944 4.45135385,0.935185766 L3.86658375,0.0937417713 C3.814133,0.0435229652 3.7170433,0 3.645621,0 L2.99835639,0 L2.34997581,0 C2.27966948,0 2.18146381,0.0435229652 2.12901306,0.0937417713 L1.54759088,0.935185766 C1.36345526,1.11708944 1.39916641,1.22868679 1.44380535,1.36483555 C1.61566527,1.91166255 2.02187961,2.40492282 2.12566514,2.86135597 C2.12566514,2.86135597 1.93148576,4.5676794 1.63798474,6.11888252 C1.47616858,6.98822585 1.07553411,9.51478978 0.766409457,12.0982684 C0.766409457,12.0982684 -1.71439956,16.7061228 2.25065417,17.2183546 C2.47831276,17.245138 3.58312649,17.2496019 3.83533649,17.2161227 C7.67205327,16.6771075 5.23253527,12.0982684 5.23253527,12.0982684" id="Fill-37" fill="#F16F6A" mask="url(#mask-8)"></path>
                            </g>
                            <g id="Group-42" transform="translate(58.859813, 70.694018)">
                                <mask id="mask-10" fill="white">
                                    <use xlink:href="#path-9"></use>
                                </mask>
                                <g id="Clip-41"></g>
                                <path d="M12.2775806,1.18942026e-14 C11.2720885,0.41849005 3.85979273,3.04437562 3.40559153,3.17159659 C2.9525063,3.29993354 2.66123723,4.04540382 2.56414754,4.33667289 C2.46594187,4.62905794 0.556511268,11.3327106 0.0063363484,14.2487492 C-0.259265337,15.6604557 7.86836943,18.1446126 16.2348225,18.2841093 L12.2775806,1.18942026e-14 Z M21.6673814,1.18942026e-14 C22.6717575,0.41849005 30.0840532,3.04437562 30.5382544,3.17159659 C30.9913397,3.29993354 31.2837247,4.04540382 31.3808144,4.33667289 C31.4779041,4.62905794 33.3873347,11.3327106 33.9397416,14.2487492 C34.2053433,15.6537598 26.1468988,18.1234091 17.8150409,18.2829933 L21.6673814,1.18942026e-14 Z" id="Fill-40" fill="#3A3732" mask="url(#mask-10)"></path>
                            </g>
                            <path d="M76.4782197,71.7604419 L78.8306918,74.701032 L81.0202317,70.6009454 L79.3920264,68.6959787 L76.4782197,71.7604419 Z M75.1836905,71.7604419 L72.8334504,74.701032 L70.6450264,70.6009454 L72.2531442,68.6959787 L75.1836905,71.7604419 Z" id="Fill-43" fill="#FFF5E1"></path>
                            <path d="M75.7056313,51.0181778 C70.3266392,51.1297752 69.5175584,56.4183734 69.6570551,57.9963599 C69.7530288,59.0721583 69.8523504,59.5888541 70.082241,60.1691603 C70.3110155,60.7483505 70.4951512,60.9637334 70.5476019,61.1244335 C70.7707966,61.77951 70.8143196,60.4012827 70.8623064,60.1613484 C71.4783238,57.1883951 77.0269439,58.3601673 79.1216261,56.0422904 C79.1216261,56.0422904 78.367228,57.2687452 80.8011661,60.5128801 C80.9495906,60.7070595 80.973026,61.568591 81.144886,61.1244335 C81.2018006,60.9670813 81.3792404,60.7483505 81.6080149,60.1691603 C81.8390215,59.5888541 81.9372271,59.0721583 82.0343168,57.9963599 C82.1749295,56.4183734 81.0835074,50.9065805 75.7056313,51.0181778" id="Fill-45" fill="#3A3732"></path>
                            <path d="M59.4274843,67.4251081 L49.4473336,59.7505586 C49.6649484,59.2918935 49.7988652,58.7885895 49.7988652,58.2495743 C49.7988652,56.5611064 48.6081215,55.1572118 47.0245552,54.8213038 L47.0245552,42.3770837 L45.558166,42.3770837 L45.558166,54.8213038 C43.9757157,55.1572118 42.783856,56.5611064 42.783856,58.2495743 C42.783856,58.7885895 42.9166568,59.2918935 43.1353876,59.7505586 L33.1552369,67.4251081 L34.0480157,68.5857206 L44.0326303,60.9078231 C44.6441838,61.4289827 45.4264812,61.751499 46.2913606,61.751499 C47.1551241,61.751499 47.9374215,61.4289827 48.5489749,60.9078231 L58.5347055,68.5857206 L59.4274843,67.4251081 Z" id="Fill-47" fill="#51504E"></path>
                        </g>
                    </g>
                </g>
            </g>
        </g>
    </g>
</svg>