<?xml version="1.0" encoding="UTF-8"?>
<svg width="86px" height="82px" viewBox="0 0 86 82" version="1.1" xmlns="http://www.w3.org/2000/svg" xmlns:xlink="http://www.w3.org/1999/xlink">
    <title>Illustration/Retire</title>
    <defs>
        <polygon id="path-1" points="0 0 25.3479 0 25.3479 41.19 0 41.19"></polygon>
        <polygon id="path-3" points="-7.10542736e-15 -7.10542736e-15 38.012984 -7.10542736e-15 38.012984 31.6659 -7.10542736e-15 31.6659"></polygon>
        <polygon id="path-5" points="-7.10542736e-15 0 39.405 0 39.405 26.926 -7.10542736e-15 26.926"></polygon>
    </defs>
    <g id="Page-1" stroke="none" stroke-width="1" fill="none" fill-rule="evenodd">
        <g id="Services-Opportunity-Checklist---Closed-Copy" transform="translate(-86.000000, -2656.000000)">
            <g id="!-DROP-DOWN" transform="translate(0.000000, 920.000000)">
                <g id="06" transform="translate(59.000000, 1706.000000)">
                    <g id="Group" transform="translate(27.871784, 30.466373)">
                        <g id="Group-3" transform="translate(0.000000, 32.246300)">
                            <mask id="mask-2" fill="white">
                                <use xlink:href="#path-1"></use>
                            </mask>
                            <g id="Clip-2"></g>
                            <path d="M2.1059,13.684 C0.3469,16.752 0.3469,20.556 2.1149,23.615 L9.2819,36.025 C9.3769,36.225 9.4899,36.433 9.6019,36.623 C10.8929,38.868 13.0079,40.488 15.4429,41.19 C5.6159,37.958 14.7499,25.002 14.7499,25.002 L19.8539,16.145 L25.3479,19.248 L19.5509,0 L-0.0001,4.611 L5.5899,7.86 L2.1059,13.684 Z" id="Fill-1" fill="#FEFEFE" mask="url(#mask-2)"></path>
                        </g>
                        <path d="M28.7801,2.7819 C28.1131,3.4149 27.5321,4.1509 27.0551,4.9749 C27.0551,4.9749 26.8651,5.3039 26.7781,5.4599 L15.9891,24.1609 L30.3231,32.4369 L43.1571,10.2779 C43.1571,10.2779 36.4931,-4.1161 28.7801,2.7819" id="Fill-4" fill="#E5E5E4"></path>
                        <path d="M29.1527,2.4352 C29.1357,2.4522 29.1177,2.4702 29.0917,2.4872 C29.1177,2.4702 29.1357,2.4522 29.1527,2.4352" id="Fill-6" fill="#4C863D"></path>
                        <path d="M29.6554,2.0279 C29.6384,2.0449 29.6204,2.0539 29.6034,2.0709 L29.6554,2.0279 Z" id="Fill-8" fill="#4C863D"></path>
                        <g id="Group-12" transform="translate(46.164600, 49.804100)">
                            <mask id="mask-4" fill="white">
                                <use xlink:href="#path-3"></use>
                            </mask>
                            <g id="Clip-11"></g>
                            <path d="M20.573,25.305 C24.109,25.296 27.402,23.39 29.17,20.331 L36.328,7.921 C36.449,7.739 36.571,7.54 36.692,7.34 C37.983,5.104 38.33,2.461 37.723,-7.10542736e-15 C39.838,10.131 24.039,8.701 24.039,8.701 L13.822,8.701 L13.77,2.392 L-7.10542736e-15,17.038 L13.761,31.666 L13.787,25.201 L20.573,25.305 Z" id="Fill-10" fill="#FEFEFE" mask="url(#mask-4)"></path>
                        </g>
                        <g id="Group-15" transform="translate(28.780200, 0.000000)">
                            <mask id="mask-6" fill="white">
                                <use xlink:href="#path-5"></use>
                            </mask>
                            <g id="Clip-14"></g>
                            <path d="M14.377,10.278 C14.377,10.278 7.713,-4.116 -7.10542736e-15,2.782 C1.828,1.023 4.29,-1.42108547e-14 6.872,-1.42108547e-14 C7.106,-1.42108547e-14 7.331,0.009 7.557,0.026 L21.891,0.017 C25.418,0.017 28.711,1.924 30.487,4.983 L33.789,10.911 L39.405,7.696 L33.624,26.926 L14.056,22.324 L19.49,19.126 L14.377,10.278 Z" id="Fill-13" fill="#FEFEFE" mask="url(#mask-6)"></path>
                        </g>
                        <path d="M83.8878,49.8041 C83.6628,48.9111 83.3248,48.0361 82.8478,47.2221 C82.8478,47.2221 82.6568,46.8841 82.5618,46.7281 L71.7638,28.0351 L57.4298,36.3111 L70.2038,58.5051 C70.2038,58.5051 86.0028,59.9351 83.8878,49.8041" id="Fill-16" fill="#E5E5E4"></path>
                        <path d="M15.443,73.4365 C16.327,73.6965 17.254,73.8355 18.199,73.8355 L18.771,73.8355 L40.358,73.8265 L40.358,57.2745 L14.75,57.2485 C14.75,57.2485 5.616,70.2045 15.443,73.4365" id="Fill-18" fill="#E5E5E4"></path>
                    </g>
                </g>
            </g>
        </g>
    </g>
</svg>