<?xml version="1.0" encoding="UTF-8"?>
<svg width="24px" height="40px" viewBox="0 0 24 40" version="1.1" xmlns="http://www.w3.org/2000/svg" xmlns:xlink="http://www.w3.org/1999/xlink">
    <title>Phone Icon</title>
    <g id="Desktop" stroke="none" stroke-width="1" fill="none" fill-rule="evenodd">
        <g id="Services-Opportunity-Checklist---Open-V2" transform="translate(-639.000000, -8110.000000)" fill="#FFFFFF" fill-rule="nonzero">
            <g id="!-FOOTER" transform="translate(1.000000, 8011.000000)">
                <g id="Speak-with-a-Specialist" transform="translate(0.000000, 75.000000)">
                    <path d="M658.534857,24 L640.701714,24 C639.216,24 638,25.2148571 638,26.7017143 L638,61.2971429 C638,62.784 639.216,64 640.701714,64 L658.534857,64 C660.020571,64 661.236571,62.7862857 661.236571,61.2982857 L661.236571,26.7017143 C661.236571,25.2148571 660.020571,24 658.534857,24 Z M646.765714,25.9474286 L652.470857,25.9474286 C652.651429,25.9474286 652.797714,26.0937143 652.797714,26.2754286 C652.797714,26.456 652.651429,26.6022857 652.470857,26.6022857 L646.765714,26.6022857 C646.585143,26.6022857 646.438857,26.456 646.438857,26.2754286 C646.438857,26.0937143 646.585143,25.9474286 646.765714,25.9474286 Z M649.618286,62.6491429 C648.872,62.6491429 648.267429,62.0445714 648.267429,61.2971429 C648.267429,60.5497143 648.872,59.9462857 649.618286,59.9462857 C650.364571,59.9462857 650.969143,60.5497143 650.969143,61.2971429 C650.969143,62.0445714 650.364571,62.6491429 649.618286,62.6491429 Z M659.356571,59 L639.88,59 L639.88,28.2845714 L659.356571,28.2845714 L659.356571,59 Z" id="Phone-Icon"></path>
                </g>
            </g>
        </g>
    </g>
</svg>